<?xml version="1.0" encoding="UTF-8"?>
<svg xmlns="http://www.w3.org/2000/svg" width="1015" height="316" viewBox="0 0 1015 316" role="img" aria-label="Frameworks Services logo">
  <title>Frameworks Services logo</title>
  <desc>Clean SVG reconstruction matched to the supplied logo image; transparent background.</desc>
  <g id="icon">
    <path d="M 147.00 245.43 L 131.00 240.43 L 128.57 236.00 L 174.00 191.57 L 188.00 189.43 L 204.00 182.43 L 214.00 174.49 L 223.43 162.00 L 228.43 152.00 L 231.50 138.00 L 230.43 120.00 L 224.43 103.00 L 218.43 94.00 L 208.00 83.57 L 190.00 73.57 L 167.00 70.57 L 152.00 73.57 L 139.00 79.57 L 131.51 85.00 L 121.57 96.00 L 113.57 112.00 L 109.43 128.00 L 67.00 182.50 L 60.57 172.00 L 60.57 167.00 L 73.43 155.00 L 76.43 149.00 L 77.43 132.00 L 72.43 119.00 L 64.00 110.57 L 57.57 107.00 L 58.57 97.00 L 67.00 79.57 L 85.00 79.43 L 96.00 74.43 L 101.43 70.00 L 109.43 56.00 L 110.43 51.00 L 107.57 35.00 L 116.00 28.57 L 134.00 21.57 L 148.00 35.43 L 158.00 38.43 L 172.00 38.43 L 185.00 31.43 L 195.00 18.57 L 204.00 19.57 L 219.00 25.57 L 222.43 29.00 L 222.57 46.00 L 227.57 57.00 L 236.00 65.43 L 251.00 71.43 L 269.00 69.57 L 273.43 75.00 L 281.43 95.00 L 270.57 105.00 L 265.57 114.00 L 264.57 133.00 L 272.57 147.00 L 284.43 156.00 L 284.43 162.00 L 277.43 180.00 L 274.00 183.43 L 258.00 182.57 L 247.00 187.57 L 238.57 195.00 L 231.57 211.00 L 231.57 219.00 L 234.43 228.00 L 230.00 232.43 L 216.00 239.43 L 208.00 241.43 L 194.00 227.57 L 183.00 223.57 L 173.00 223.57 L 158.00 230.57 L 147.00 245.43 Z" fill="#f36f09" fill-rule="evenodd"/>
    <path d="M 60.00 292.34 L 59.57 290.00 L 143.43 177.00 L 143.00 174.51 L 138.51 172.00 L 126.00 158.65 L 26.48 256.00 L 24.66 256.00 L 118.43 130.00 L 122.57 112.00 L 129.57 100.00 L 140.00 89.57 L 153.00 82.57 L 167.00 79.57 L 177.00 80.57 L 178.35 82.00 L 177.50 83.00 L 144.57 118.00 L 144.57 123.00 L 152.57 147.00 L 157.00 151.43 L 181.00 156.43 L 186.00 156.43 L 217.00 122.51 L 219.00 120.57 L 221.00 120.58 L 222.43 126.00 L 222.43 138.00 L 221.43 144.00 L 215.43 159.00 L 199.00 175.43 L 185.00 181.43 L 172.00 182.57 L 169.00 184.57 L 60.00 292.34 Z M 309.00 152.43 L 296.00 152.43 L 294.65 151.00 L 298.43 138.00 L 308.58 84.00 L 310.00 83.58 L 310.50 150.00 L 309.00 152.43 Z" fill="#77838c" fill-rule="evenodd"/>
  </g>
  <g id="wordmark">
    <path d="M294.0 151.701 313.910 59.000H363.224L358.873 78.604H333.556L329.996 97.041H353.203L348.852 116.776H325.381L318.129 151.701ZM358.609 151.701 374.036 79.903H392.892L391.969 91.328H392.496Q396.715 84.187 400.935 81.396Q405.154 78.604 411.747 78.604Q413.066 78.604 414.450 78.734Q415.835 78.864 416.889 79.254L410.824 103.013Q409.374 102.494 407.462 102.104Q405.550 101.715 403.440 101.715Q398.298 101.715 394.738 105.740Q391.177 109.765 389.332 118.464L382.211 151.701ZM432.053 153.0Q424.537 153.0 419.395 147.092Q414.252 141.185 414.252 128.201Q414.252 122.878 415.439 116.256Q416.626 109.635 418.933 103.013Q421.241 96.392 424.801 90.874Q428.361 85.356 433.306 81.980Q438.250 78.604 444.579 78.604Q449.590 78.604 453.216 81.201Q456.842 83.798 459.083 88.602H459.611L462.907 79.903H482.422L466.863 151.701H447.876L448.007 143.651H447.480Q444.711 147.676 441.217 150.338Q437.723 153.0 432.053 153.0ZM442.338 134.044Q444.843 134.044 446.821 131.317Q448.799 128.591 450.249 124.436Q451.699 120.281 452.491 115.997Q453.282 112.361 453.480 110.024Q453.677 107.687 453.677 105.870Q453.677 101.975 452.754 99.832Q451.831 97.690 449.722 97.690Q447.480 97.690 445.436 100.482Q443.393 103.273 441.810 107.622Q440.228 111.972 439.305 116.841Q438.382 121.709 438.382 125.864Q438.382 134.044 442.338 134.044ZM481.895 151.701 497.322 79.903H516.309L515.386 90.419H515.913Q519.342 84.317 523.693 81.461Q528.044 78.604 534.373 78.604Q540.966 78.604 544.658 81.526Q548.350 84.447 550.064 90.160H550.592Q558.107 78.604 569.974 78.604Q577.886 78.604 582.105 83.473Q586.325 88.342 586.325 97.560Q586.325 100.287 585.863 103.598Q585.402 106.908 584.742 110.284L576.040 151.701H552.569L560.876 111.712Q561.272 109.895 561.667 107.493Q562.063 105.091 562.063 102.754Q562.063 97.820 558.503 97.820Q554.679 97.820 552.306 102.948Q549.932 108.077 548.350 115.997L540.702 151.701H517.232L525.671 111.712Q526.066 109.765 526.462 107.298Q526.857 104.831 526.857 103.143Q526.857 100.287 525.869 99.053Q524.880 97.820 523.297 97.820Q517.364 97.820 513.408 115.607L505.497 151.701ZM620.212 153.0Q607.685 153.0 601.027 145.924Q594.368 138.848 594.368 126.383Q594.368 117.814 596.609 109.310Q598.851 100.806 603.664 93.860Q608.476 86.914 615.860 82.759Q623.244 78.604 633.529 78.604Q644.078 78.604 650.539 83.863Q657.0 89.121 657.0 97.950Q657.0 110.284 647.835 117.165Q638.671 124.046 620.739 124.046H617.970Q617.706 125.215 617.706 126.254Q617.706 131.187 619.948 133.459Q622.189 135.732 626.541 135.732Q631.683 135.732 636.100 134.238Q640.517 132.745 645.792 129.759L645.660 146.508Q639.990 149.754 634.122 151.377Q628.255 153.0 620.212 153.0ZM621.794 108.856Q629.442 108.856 632.211 106.0Q634.980 103.143 634.980 99.767Q634.980 97.820 633.793 96.457Q632.606 95.093 630.365 95.093Q626.804 95.093 624.299 99.183Q621.794 103.273 620.739 108.856Z" fill="#7a858d"/>
    <path d="M665.421 151.701 664.0 79.883H685.971L685.195 110.272Q685.066 114.038 684.743 117.805Q684.420 121.571 684.032 124.818H684.549Q685.195 121.701 686.100 118.324Q687.004 114.948 688.168 111.831L699.670 79.883H724.355L722.158 111.181Q722.029 113.909 721.770 117.610Q721.512 121.311 721.124 125.337H721.512Q722.675 121.311 723.644 117.675Q724.614 114.038 726.035 110.272L737.796 79.883H760.801L729.266 151.701H703.677L705.486 121.831Q705.744 117.675 706.132 112.350Q706.520 107.025 707.037 102.610H706.520Q705.486 107.025 703.935 111.701Q702.384 116.376 701.221 119.753L689.977 151.701ZM781.997 153.0Q769.977 153.0 763.645 146.051Q757.312 139.103 757.312 126.636Q757.312 118.324 759.573 109.818Q761.835 101.311 766.488 94.233Q771.141 87.155 778.249 82.870Q785.357 78.584 795.050 78.584Q806.811 78.584 813.209 85.532Q819.606 92.480 819.606 104.948Q819.606 113.519 817.280 122.025Q814.953 130.532 810.236 137.545Q805.519 144.558 798.475 148.779Q791.431 153.0 781.997 153.0ZM784.840 134.948Q787.166 134.948 789.234 132.025Q791.302 129.103 792.853 124.493Q794.404 119.883 795.244 114.558Q796.084 109.233 796.084 104.428Q796.084 96.636 791.948 96.636Q789.622 96.636 787.619 99.558Q785.616 102.480 784.065 107.155Q782.514 111.831 781.674 117.090Q780.834 122.350 780.834 127.155Q780.834 134.948 784.840 134.948ZM823.354 151.701 838.475 79.883H856.957L856.052 91.311H856.569Q860.705 84.168 864.841 81.376Q868.976 78.584 875.438 78.584Q876.731 78.584 878.088 78.714Q879.445 78.844 880.479 79.233L874.534 103.0Q873.112 102.480 871.238 102.090Q869.364 101.701 867.296 101.701Q862.256 101.701 858.766 105.727Q855.277 109.753 853.467 118.454L846.488 151.701ZM874.146 151.701 894.825 52.999H917.829L909.300 93.649Q908.524 97.285 907.490 101.311Q906.456 105.337 905.552 108.064H905.939L927.264 79.883H953.112L925.713 111.831L939.284 151.701H913.435L906.715 127.155L901.416 130.922L897.280 151.701ZM967.200 153.0Q960.350 153.0 955.503 151.961Q950.657 150.922 946.780 148.844L946.909 129.363Q951.949 132.350 956.537 133.649Q961.125 134.948 965.390 134.948Q967.329 134.948 969.849 134.038Q972.369 133.129 972.369 130.272Q972.369 128.454 971.012 126.506Q969.655 124.558 964.486 121.051Q958.799 117.155 956.279 112.610Q953.759 108.064 953.759 101.961Q953.759 91.831 960.285 85.207Q966.812 78.584 980.641 78.584Q987.232 78.584 992.789 80.272Q998.347 81.961 1003.0 85.207L995.245 101.051Q991.885 98.454 988.008 96.896Q984.130 95.337 981.416 95.337Q977.410 95.337 977.410 99.623Q977.410 101.441 978.896 102.870Q980.382 104.298 984.518 107.025Q990.463 110.792 993.371 115.402Q996.279 120.012 996.279 127.025Q996.279 139.233 988.460 146.116Q980.641 153.0 967.200 153.0Z" fill="#f36f09"/>
    <path d="M520.611 215.754Q520.611 221.532 516.105 224.766Q511.599 228.0 503.874 228.0Q495.506 228.0 491.0 225.994V221.083Q493.896 222.221 497.308 222.880Q500.720 223.538 504.067 223.538Q509.539 223.538 512.307 221.607Q515.075 219.676 515.075 216.233Q515.075 213.958 514.093 212.505Q513.111 211.053 510.810 209.826Q508.509 208.598 503.810 207.041Q497.244 204.856 494.427 201.862Q491.611 198.868 491.611 194.047Q491.611 188.988 495.699 185.994Q499.786 183.0 506.513 183.0Q513.530 183.0 519.420 185.395L517.714 189.826Q511.888 187.550 506.384 187.550Q502.039 187.550 499.593 189.287Q497.147 191.023 497.147 194.107Q497.147 196.383 498.048 197.835Q498.949 199.287 501.090 200.5Q503.230 201.712 507.640 203.179Q515.042 205.634 517.827 208.449Q520.611 211.263 520.611 215.754ZM562.458 227.401H536.227V183.628H562.458V188.149H541.698V202.251H561.203V206.742H541.698V222.850H562.458ZM584.351 209.197V227.401H578.879V183.628H591.786Q600.444 183.628 604.580 186.712Q608.715 189.796 608.715 195.994Q608.715 204.676 599.253 207.730L612.031 227.401H605.561L594.167 209.197ZM584.351 204.826H591.850Q597.644 204.826 600.347 202.685Q603.051 200.544 603.051 196.263Q603.051 191.922 600.299 190.005Q597.547 188.089 591.464 188.089H584.351ZM652.494 183.628H658.384L641.422 227.401H636.015L619.150 183.628H624.943L635.758 211.952Q637.624 216.832 638.719 221.443Q639.877 216.592 641.744 211.772ZM670.846 227.401V183.628H676.318V227.401ZM715.365 187.550Q707.609 187.550 703.119 192.356Q698.629 197.161 698.629 205.514Q698.629 214.107 702.958 218.793Q707.287 223.479 715.301 223.479Q720.225 223.479 726.534 221.832V226.293Q721.642 228.0 714.464 228.0Q704.068 228.0 698.419 222.131Q692.771 216.263 692.771 205.455Q692.771 198.688 695.490 193.598Q698.210 188.508 703.344 185.754Q708.478 183.0 715.430 183.0Q722.833 183.0 728.369 185.514L726.051 189.886Q720.708 187.550 715.365 187.550ZM769.025 227.401H742.794V183.628H769.025V188.149H748.265V202.251H767.770V206.742H748.265V222.850H769.025ZM811.999 215.754Q811.999 221.532 807.493 224.766Q802.987 228.0 795.263 228.0Q786.894 228.0 782.388 225.994V221.083Q785.285 222.221 788.697 222.880Q792.109 223.538 795.456 223.538Q800.928 223.538 803.696 221.607Q806.464 219.676 806.464 216.233Q806.464 213.958 805.482 212.505Q804.500 211.053 802.199 209.826Q799.898 208.598 795.198 207.041Q788.632 204.856 785.816 201.862Q783.000 198.868 783.000 194.047Q783.000 188.988 787.088 185.994Q791.175 183.0 797.902 183.0Q804.919 183.0 810.809 185.395L809.103 189.826Q803.277 187.550 797.773 187.550Q793.428 187.550 790.982 189.287Q788.536 191.023 788.536 194.107Q788.536 196.383 789.437 197.835Q790.338 199.287 792.479 200.5Q794.619 201.712 799.029 203.179Q806.431 205.634 809.215 208.449Q811.999 211.263 811.999 215.754Z" fill="#41484e"/>
  </g>
</svg>
